<?xml version="1.0" encoding="UTF-8" standalone="no"?>
<svg
   id="Layer_1_copy_7"
   data-name="Layer 1 copy 7"
   viewBox="0 0 1116.96 244.35"
   version="1.1"
   sodipodi:docname="InCognitive8.svg"
   inkscape:version="1.2 (dc2aeda, 2022-05-15)"
   xmlns:inkscape="http://www.inkscape.org/namespaces/inkscape"
   xmlns:sodipodi="http://sodipodi.sourceforge.net/DTD/sodipodi-0.dtd"
   xmlns="http://www.w3.org/2000/svg"
   xmlns:svg="http://www.w3.org/2000/svg">
  <sodipodi:namedview
     id="namedview254"
     pagecolor="#505050"
     bordercolor="#ffffff"
     borderopacity="1"
     inkscape:showpageshadow="0"
     inkscape:pageopacity="0"
     inkscape:pagecheckerboard="1"
     inkscape:deskcolor="#505050"
     showgrid="false"
     inkscape:zoom="1.1155279"
     inkscape:cx="376.05514"
     inkscape:cy="124.15646"
     inkscape:window-width="2482"
     inkscape:window-height="1205"
     inkscape:window-x="0"
     inkscape:window-y="25"
     inkscape:window-maximized="0"
     inkscape:current-layer="Layer_1_copy_7" />
  <defs
     id="defs177">
    <style
       id="style132">.cls-1,.cls-3,.cls-4,.cls-7{font-size:125px;}.cls-1,.cls-4{stroke:#0071bc;stroke-width:0.75px;}.cls-1,.cls-3,.cls-4,.cls-7,.cls-9{stroke-miterlimit:10;}.cls-1,.cls-3{font-family:Orbitron-Medium, Orbitron;font-weight:500;}.cls-2{fill:url(#linear-gradient);}.cls-3,.cls-7,.cls-9{fill:none;stroke:#000;stroke-width:0.5px;}.cls-4,.cls-7{font-family:Orbitron-SemiBold, Orbitron;font-weight:600;}.cls-5{letter-spacing:0.01em;}.cls-6{fill:url(#linear-gradient-3);}.cls-8{fill:url(#linear-gradient-12);}</style>
    <linearGradient
       id="linear-gradient"
       x1="255.77"
       y1="157.31"
       x2="255.77"
       y2="67.31"
       gradientUnits="userSpaceOnUse">
      <stop
         offset="0"
         stop-color="#9cab35"
         id="stop134" />
      <stop
         offset="0.17"
         stop-color="#8f9e37"
         stop-opacity="0.95"
         id="stop136" />
      <stop
         offset="0.5"
         stop-color="#6e7c3d"
         stop-opacity="0.81"
         id="stop138" />
      <stop
         offset="0.73"
         stop-color="#546141"
         stop-opacity="0.7"
         id="stop140" />
      <stop
         offset="0.9"
         stop-color="#485315"
         stop-opacity="0.7"
         id="stop142" />
      <stop
         offset="1"
         stop-color="#424d01"
         stop-opacity="0.7"
         id="stop144" />
    </linearGradient>
    <linearGradient
       id="linear-gradient-3"
       x1="724.72"
       y1="158.1"
       x2="724.72"
       y2="68.1"
       gradientUnits="userSpaceOnUse">
      <stop
         offset="0"
         stop-color="#0b97b9"
         id="stop147" />
      <stop
         offset="0"
         stop-color="#379d91"
         id="stop149" />
      <stop
         offset="0"
         stop-color="#9cab35"
         id="stop151" />
      <stop
         offset="0.12"
         stop-color="#98a736"
         stop-opacity="0.99"
         id="stop153" />
      <stop
         offset="0.26"
         stop-color="#8e9d37"
         stop-opacity="0.94"
         id="stop155" />
      <stop
         offset="0.41"
         stop-color="#7d8b3a"
         stop-opacity="0.87"
         id="stop157" />
      <stop
         offset="0.58"
         stop-color="#66733e"
         stop-opacity="0.78"
         id="stop159" />
      <stop
         offset="0.66"
         stop-color="#586540"
         stop-opacity="0.72"
         id="stop161" />
      <stop
         offset="0.97"
         stop-color="#424d00"
         stop-opacity="0.72"
         id="stop163" />
    </linearGradient>
    <linearGradient
       id="linear-gradient-12"
       x1="74.63"
       y1="45.61"
       x2="74.63"
       y2="183.87"
       gradientUnits="userSpaceOnUse">
      <stop
         offset="0"
         stop-color="#373733"
         stop-opacity="0.8"
         id="stop166" />
      <stop
         offset="0.29"
         stop-color="#5b6134"
         stop-opacity="0.87"
         id="stop168" />
      <stop
         offset="0.61"
         stop-color="#7e8934"
         stop-opacity="0.94"
         id="stop170" />
      <stop
         offset="0.85"
         stop-color="#94a235"
         stop-opacity="0.98"
         id="stop172" />
      <stop
         offset="1"
         stop-color="#9cab35"
         id="stop174" />
    </linearGradient>
  </defs>
  <path
     class="cls-2"
     d="M190.88,157.31v-90h15v90Z"
     id="path181" />
  <path
     class="cls-2"
     d="M220.93,157.31v-90H238.8l66.76,71.75V67.31h15.09v90H302.79l-66.9-71.88v71.88Z"
     id="path183" />
  <path
     class="cls-6"
     d="M355.6,157.31a16.77,16.77,0,0,1-16.87-16.88V84.18A16.76,16.76,0,0,1,355.6,67.31h72.88V82.43H358.23A4.52,4.52,0,0,0,355,83.62a4.17,4.17,0,0,0-1.25,3.19v51A4.19,4.19,0,0,0,355,141a4.51,4.51,0,0,0,3.25,1.18h70.25v15.13Z"
     id="path193" />
  <path
     class="cls-6"
     d="M458.1,157.31a16.77,16.77,0,0,1-16.87-16.88V84.18A16.76,16.76,0,0,1,458.1,67.31h56.25a16.33,16.33,0,0,1,8.44,2.25,17.25,17.25,0,0,1,6.12,6.12,16.33,16.33,0,0,1,2.32,8.5v56.25a16.28,16.28,0,0,1-2.32,8.5,17.2,17.2,0,0,1-6.12,6.13,16.33,16.33,0,0,1-8.44,2.25Zm.38-15.13h55.25a2.39,2.39,0,0,0,1.68-.62,2.1,2.1,0,0,0,.69-1.63V84.68a2.09,2.09,0,0,0-.69-1.62,2.4,2.4,0,0,0-1.68-.63H458.48a2.26,2.26,0,0,0-1.57.63,2.09,2.09,0,0,0-.68,1.62v55.25a2.09,2.09,0,0,0,.68,1.63A2.25,2.25,0,0,0,458.48,142.18Z"
     id="path195" />
  <path
     class="cls-6"
     d="M561.85,157.31A16.77,16.77,0,0,1,545,140.43V84.18a16.77,16.77,0,0,1,16.88-16.87H618.1a16.33,16.33,0,0,1,8.44,2.25,17.25,17.25,0,0,1,6.12,6.12,16.32,16.32,0,0,1,2.31,8.5v6.13H619.85V84.68a2.09,2.09,0,0,0-.69-1.62,2.41,2.41,0,0,0-1.69-.63H562.22a2.25,2.25,0,0,0-1.56.63,2.09,2.09,0,0,0-.69,1.62v55.25a2.1,2.1,0,0,0,.69,1.63,2.24,2.24,0,0,0,1.56.62h55.25a2.4,2.4,0,0,0,1.69-.62,2.1,2.1,0,0,0,.69-1.63V122.31H599.1V107.18H635v33.25a16.27,16.27,0,0,1-2.31,8.5,17.2,17.2,0,0,1-6.12,6.13,16.33,16.33,0,0,1-8.44,2.25Z"
     id="path197" />
  <path
     class="cls-6"
     d="M648.72,157.31v-90h17.13l57.75,68.75V67.31h15.12v90H721.6L663.72,88.43v68.88Z"
     id="path199" />
  <path
     class="cls-6"
     d="M751.72,157.31v-90H766.6v90Z"
     id="path201" />
  <path
     class="cls-6"
     d="M813.84,157.31V82.43h-37.5V67.31h90V82.43H829v74.88Z"
     id="path203" />
  <path
     class="cls-6"
     d="M874.72,157.31v-90h14.87v90Z"
     id="path205" />
  <path
     class="cls-6"
     d="M952,157.31l-52.12-90h17.5L959,139.68l41.75-72.37h17.38l-52.13,90Z"
     id="path207" />
  <path
     class="cls-6"
     d="M1028.09,157.31v-90h82.62V82.43h-67.5v22.25h54.38v15.25h-54.38v22.25h67.5v15.13Z"
     id="path209" />
  <path
     d="M114,152.62a9.12,9.12,0,0,1,1.16-5.42,6.82,6.82,0,0,1,3.11-2.9,8,8,0,0,1,8,.76,7.43,7.43,0,0,1,3.06,6.37,8.85,8.85,0,0,1-.49,2.79,6.54,6.54,0,0,1-3.72,3.88c-.6.29-1.19.63-1.82.87a5.87,5.87,0,0,1-4.11.07,3.27,3.27,0,0,0-3,.41,25.21,25.21,0,0,0-3.4,2.68c-2.47,2.25-5.19,4.2-7.71,6.41s-4.89,4.34-7.3,6.54a2.72,2.72,0,0,0-.88,2,6.65,6.65,0,0,1-.77,3.32c-1,1.69-2.72,2.41-4.5,3A8.6,8.6,0,0,1,81.39,179a8.76,8.76,0,0,1-.42-5.58,2.87,2.87,0,0,0-.23-1.94,40.37,40.37,0,0,0-4.66-7.75c-2.09-2.8-4.23-5.56-6.29-8.38a2.2,2.2,0,0,0-2-1,6.92,6.92,0,0,1-3.41-.75,10.34,10.34,0,0,1-4-3.84c-.78-1.3-.37-2.74-.12-4.1a12.48,12.48,0,0,1,2.78-5.74,3.13,3.13,0,0,0,.6-2.95c-.63-2.37-1.22-4.75-1.74-7.14a3.63,3.63,0,0,0-1.7-2.16,5.22,5.22,0,0,1-2.18-5.1,4.85,4.85,0,0,1,6.67-3.75A5,5,0,0,1,67,125.94a4.67,4.67,0,0,0-.68,3.93c.53,2.13.89,4.3,1.46,6.43a4,4,0,0,0,1.68,2.38,18.36,18.36,0,0,1,4.49,4.26,6.35,6.35,0,0,1,.63,6.6,4.16,4.16,0,0,1-.6,1.12,1.52,1.52,0,0,0,0,2.05c1.41,2,2.84,3.93,4.27,5.88s3,4.09,4.54,6.14A14.4,14.4,0,0,0,85,167.09a2.26,2.26,0,0,0,2,.55,9.85,9.85,0,0,1,8.13,2.17.78.78,0,0,0,1.2,0c1.53-1.33,3.06-2.65,4.61-3.94,3.48-2.92,6.87-6,10.43-8.77.76-.6,1.49-1.25,2.23-1.88a1.16,1.16,0,0,0,.38-.94Z"
     id="path217" />
  <path
     d="M80.28,76.86c2.29,0,4.1.28,5.58,1.55,1.87,1.61,2.18,3.8,2,6.09a8.72,8.72,0,0,1-1.67,4.28,10,10,0,0,0-2,3.67,2.28,2.28,0,0,0,0,.9c.59,2.86,1.24,5.7,1.77,8.58a8.25,8.25,0,0,0,2.55,4.35,4.75,4.75,0,0,1,1,5.34,4.82,4.82,0,0,1-7.18,2.18,4.71,4.71,0,0,1-.81-7.38,2.56,2.56,0,0,0,.73-2.3c-.52-3.39-1.33-6.71-2.05-10.06-.3-1.39-1.49-2.27-2.54-3.14-.85-.7-1.79-1.29-2.62-2-1.89-1.65-2.25-3.79-1.81-6.15a2.88,2.88,0,0,1,.1-.51c1-2.51,0-4.6-1.44-6.56-3-4.11-6-8.18-9-12.29a1.18,1.18,0,0,0-1.51-.53,7.62,7.62,0,0,1-7.53-1.37c-.79-.65-1.08-.59-1.93,0a52.33,52.33,0,0,0-5,4.31c-.57.48-1.08,1-1.64,1.52a2.39,2.39,0,0,0-.9,1.94A7.7,7.7,0,0,1,42,75.13a6.48,6.48,0,0,1-8,.61,15.19,15.19,0,0,1-2.16-1.85c-.19-.19-.3-.54-.72-.39-.2.07-.27-.17-.16-.28.39-.38.13-.75,0-1.11a7.55,7.55,0,0,1,.35-5.75,2.5,2.5,0,0,1,.56-.88c1.81-1.49,3.7-2.84,6.21-2.75a3.9,3.9,0,0,1,1.94.48,1.08,1.08,0,0,0,1.37-.14c2.56-2.15,4.94-4.51,7.4-6.77a1.34,1.34,0,0,0,.42-.69c.42-2.28,1.8-4,3.21-5.74s3.43-2.28,5.58-2.38c.6,0,1.2,0,1.8,0A5.65,5.65,0,0,1,64.43,50a11.17,11.17,0,0,1,2.31,4.32,9.85,9.85,0,0,1,.18,3.42,3.61,3.61,0,0,0,.65,2.83c2.09,2.92,4.08,5.91,6.2,8.82,1.58,2.18,3.2,4.34,4.69,6.58A1.86,1.86,0,0,0,80.28,76.86Z"
     id="path219" />
  <path
     d="M53.62,96.58c-1.46-.66-2.09.53-2.82,1.61-3.21,4.73-6.34,9.51-9.16,14.48-.6,1.06-1.2,2.12-1.75,3.22a1,1,0,0,0,0,1.1,11.34,11.34,0,0,1,2,4.79,5.1,5.1,0,0,1-1.35,4.64A11.57,11.57,0,0,1,37.21,129a6.07,6.07,0,0,1-6.43-.7c-2.23-1.71-3.83-3.73-3.81-6.68a6.39,6.39,0,0,1,3.81-6,24.45,24.45,0,0,1,3.45-1.46c1.13-.38,1.69-1.45,2.3-2.37,1.76-2.66,3.46-5.38,5.19-8.06s3.5-5.64,5.47-8.33a3.37,3.37,0,0,0,.21-.31,1.13,1.13,0,0,0,0-1.27c-.32-.39-.78-.2-1.17,0-3.24,1.82-6.64,3.33-9.95,5s-6.28,3.58-9.51,5.24c-2.21,1.13-4.32,2.48-6.48,3.72-.28.16-.52.31-.51.67.05,2-1,3.72-1.92,5.44-.32.59-.67,1.17-1.05,1.73a5.3,5.3,0,0,1-3.9,2.14,8.87,8.87,0,0,1-8.73-4.65,8,8,0,0,1,4.84-11.14,7.86,7.86,0,0,1,5.63.27l.34.16a4.53,4.53,0,0,0,4.4-.06c2.28-1.15,4.43-2.52,6.65-3.76s4.56-2.27,6.81-3.47c2.53-1.34,5.12-2.58,7.59-4a26.43,26.43,0,0,1,5.62-3A3.77,3.77,0,0,0,48.42,86a8.45,8.45,0,0,1,3.16-4,7.17,7.17,0,0,1,7.57.06,6.48,6.48,0,0,1,3.42,6.79,8.07,8.07,0,0,1-4.68,6.83A11.14,11.14,0,0,1,53.62,96.58Z"
     id="path221" />
  <path
     d="M93.73,135.75a8.6,8.6,0,0,1,1.35.07,1.62,1.62,0,0,0,1.91-.89c3.31-5.09,6.55-10.21,10.09-15.15.59-.83,1.13-1.7,1.72-2.54a1.28,1.28,0,0,0,0-1.53,10.2,10.2,0,0,1-1.52-3.88,7.26,7.26,0,0,1,2.65-6.88,7,7,0,0,1,10.28,1.37c2.14,3.27,1.42,8.22-2.15,10.17a13.52,13.52,0,0,1-3,1.33,2.92,2.92,0,0,0-1.41.82,69.18,69.18,0,0,0-5.82,7.6q-3,4.42-5.74,9a12.72,12.72,0,0,0-1.46,2.78c-.09.28-.2.61.07.84s.52,0,.77-.09c5.39-2.4,10.65-5,16-7.58,3.44-1.65,6.76-3.57,10.35-4.91.57-.22.95-.8,1.46-1,1.06-.41,1.06-1.34,1.41-2.15,1.72-4,3.74-6,8.1-6.47a6,6,0,0,1,3.28.87c3.83,1.93,4.49,6.59,3.35,10-1.41,4.18-7.4,5.83-11.16,3.33a5,5,0,0,0-4.57-.31,34,34,0,0,0-4.78,2.32c-3.9,1.86-7.82,3.67-11.69,5.58-2.75,1.35-5.45,2.84-8.17,4.26a38.57,38.57,0,0,0-4.57,2.55A15.28,15.28,0,0,0,97,149a3.68,3.68,0,0,1-2.61,1.59C90,151.23,87,149.72,85,146a5.67,5.67,0,0,1,.22-5.55C87,137.1,90.09,135.88,93.73,135.75Z"
     id="path223" />
  <path
     d="M130.52,101.55A8.11,8.11,0,0,1,123,96.79a4.86,4.86,0,0,0-3.2-2.69,77.74,77.74,0,0,1-8.65-3.16A5.53,5.53,0,0,1,109,89.3c-2.45-3.25-4.72-6.62-6.89-10.07-1.56-2.46-3.32-4.79-5.07-7.13-2.18-2.92-4.46-5.76-6.79-8.56a3.58,3.58,0,0,0-1.81-1.28A10.71,10.71,0,0,1,83,58.73a8.1,8.1,0,0,1,2.78-12.26c3.14-1.65,5.82-.72,8.46,1.09a7,7,0,0,1,2.87,5.2,8.68,8.68,0,0,1-.44,4,7.13,7.13,0,0,0,.75,5.63c1.26,2.48,3,4.67,4.41,7,1.71,2.79,3.56,5.49,5.14,8.36s3.3,5.41,5.06,8A3.24,3.24,0,0,0,113.61,87c2.41.92,5,1.37,7.42,2.07a3.14,3.14,0,0,0,3.5-1.26c2.41-3,5.78-3.91,9.17-2.31a8.7,8.7,0,0,1,5,6.6,7,7,0,0,1-1.65,6.12,8.54,8.54,0,0,1-5.38,3.2C131.25,101.52,130.82,101.53,130.52,101.55Z"
     id="path225" />
  <path
     d="M59.16,183.26a10.57,10.57,0,0,1-4.55-.93c-1.81-.75-2.59-2.34-3.11-4.09a7.81,7.81,0,0,1-.12-4.66c1-3.18,0-5.8-1.83-8.32-1.68-2.26-3.28-4.59-4.89-6.9-2.17-3.11-4.33-6.22-6.44-9.37a34.82,34.82,0,0,0-3-4.07,1.62,1.62,0,0,0-.78-.55c-2.59-.66-5.15-1.45-7.76-2a2.2,2.2,0,0,0-2.64.94c-2.18,3.11-5.25,3.36-8.69,2.7s-5.88-4.69-6-7.69a8,8,0,0,1,3.9-7.66,6,6,0,0,1,2.53-.59c2.21-.36,4.4-.39,6.37.91a11.38,11.38,0,0,1,3.35,3.88,5,5,0,0,0,3,2.44c2.83.83,5.51,2.08,8.26,3.14a6.23,6.23,0,0,1,2.33,2c2.62,3,4.75,6.35,7.2,9.47,1.05,1.33,2,2.77,2.89,4.19a49.78,49.78,0,0,0,5.1,6.46c1.41,1.55,2.67,3.24,4.2,4.69a11.29,11.29,0,0,0,3,1.8,8.6,8.6,0,0,1,4.39,4.2,7.21,7.21,0,0,1-2,8.68A6.75,6.75,0,0,1,59.16,183.26Z"
     id="path227" />
  <path
     class="cls-8"
     d="M114,152.62a9.12,9.12,0,0,1,1.16-5.42,6.82,6.82,0,0,1,3.11-2.9,8,8,0,0,1,8,.76,7.43,7.43,0,0,1,3.06,6.37,8.85,8.85,0,0,1-.49,2.79,6.54,6.54,0,0,1-3.72,3.88c-.6.29-1.19.63-1.82.87a5.87,5.87,0,0,1-4.11.07,3.27,3.27,0,0,0-3,.41,25.21,25.21,0,0,0-3.4,2.68c-2.47,2.25-5.19,4.2-7.71,6.41s-4.89,4.34-7.3,6.54a2.72,2.72,0,0,0-.88,2,6.65,6.65,0,0,1-.77,3.32c-1,1.69-2.72,2.41-4.5,3A8.6,8.6,0,0,1,81.39,179a8.76,8.76,0,0,1-.42-5.58,2.87,2.87,0,0,0-.23-1.94,40.37,40.37,0,0,0-4.66-7.75c-2.09-2.8-4.23-5.56-6.29-8.38a2.2,2.2,0,0,0-2-1,6.92,6.92,0,0,1-3.41-.75,10.34,10.34,0,0,1-4-3.84c-.78-1.3-.37-2.74-.12-4.1a12.48,12.48,0,0,1,2.78-5.74,3.13,3.13,0,0,0,.6-2.95c-.63-2.37-1.22-4.75-1.74-7.14a3.63,3.63,0,0,0-1.7-2.16,5.22,5.22,0,0,1-2.18-5.1,4.85,4.85,0,0,1,6.67-3.75A5,5,0,0,1,67,125.94a4.67,4.67,0,0,0-.68,3.93c.53,2.13.89,4.3,1.46,6.43a4,4,0,0,0,1.68,2.38,18.36,18.36,0,0,1,4.49,4.26,6.35,6.35,0,0,1,.63,6.6,4.16,4.16,0,0,1-.6,1.12,1.52,1.52,0,0,0,0,2.05c1.41,2,2.84,3.93,4.27,5.88s3,4.09,4.54,6.14A14.4,14.4,0,0,0,85,167.09a2.26,2.26,0,0,0,2,.55,9.85,9.85,0,0,1,8.13,2.17.78.78,0,0,0,1.2,0c1.53-1.33,3.06-2.65,4.61-3.94,3.48-2.92,6.87-6,10.43-8.77.76-.6,1.49-1.25,2.23-1.88a1.16,1.16,0,0,0,.38-.94Z"
     id="path229" />
  <path
     class="cls-8"
     d="M80.28,76.86c2.29,0,4.1.28,5.58,1.55,1.87,1.61,2.18,3.8,2,6.09a8.72,8.72,0,0,1-1.67,4.28,10,10,0,0,0-2,3.67,2.28,2.28,0,0,0,0,.9c.59,2.86,1.24,5.7,1.77,8.58a8.25,8.25,0,0,0,2.55,4.35,4.75,4.75,0,0,1,1,5.34,4.82,4.82,0,0,1-7.18,2.18,4.71,4.71,0,0,1-.81-7.38,2.56,2.56,0,0,0,.73-2.3c-.52-3.39-1.33-6.71-2.05-10.06-.3-1.39-1.49-2.27-2.54-3.14-.85-.7-1.79-1.29-2.62-2-1.89-1.65-2.25-3.79-1.81-6.15a2.88,2.88,0,0,1,.1-.51c1-2.51,0-4.6-1.44-6.56-3-4.11-6-8.18-9-12.29a1.18,1.18,0,0,0-1.51-.53,7.62,7.62,0,0,1-7.53-1.37c-.79-.65-1.08-.59-1.93,0a52.33,52.33,0,0,0-5,4.31c-.57.48-1.08,1-1.64,1.52a2.39,2.39,0,0,0-.9,1.94A7.7,7.7,0,0,1,42,75.13a6.48,6.48,0,0,1-8,.61,15.19,15.19,0,0,1-2.16-1.85c-.19-.19-.3-.54-.72-.39-.2.07-.27-.17-.16-.28.39-.38.13-.75,0-1.11a7.55,7.55,0,0,1,.35-5.75,2.5,2.5,0,0,1,.56-.88c1.81-1.49,3.7-2.84,6.21-2.75a3.9,3.9,0,0,1,1.94.48,1.08,1.08,0,0,0,1.37-.14c2.56-2.15,4.94-4.51,7.4-6.77a1.34,1.34,0,0,0,.42-.69c.42-2.28,1.8-4,3.21-5.74s3.43-2.28,5.58-2.38c.6,0,1.2,0,1.8,0A5.65,5.65,0,0,1,64.43,50a11.17,11.17,0,0,1,2.31,4.32,9.85,9.85,0,0,1,.18,3.42,3.61,3.61,0,0,0,.65,2.83c2.09,2.92,4.08,5.91,6.2,8.82,1.58,2.18,3.2,4.34,4.69,6.58A1.86,1.86,0,0,0,80.28,76.86Z"
     id="path231" />
  <path
     class="cls-8"
     d="M53.62,96.58c-1.46-.66-2.09.53-2.82,1.61-3.21,4.73-6.34,9.51-9.16,14.48-.6,1.06-1.2,2.12-1.75,3.22a1,1,0,0,0,0,1.1,11.34,11.34,0,0,1,2,4.79,5.1,5.1,0,0,1-1.35,4.64A11.57,11.57,0,0,1,37.21,129a6.07,6.07,0,0,1-6.43-.7c-2.23-1.71-3.83-3.73-3.81-6.68a6.39,6.39,0,0,1,3.81-6,24.45,24.45,0,0,1,3.45-1.46c1.13-.38,1.69-1.45,2.3-2.37,1.76-2.66,3.46-5.38,5.19-8.06s3.5-5.64,5.47-8.33a3.37,3.37,0,0,0,.21-.31,1.13,1.13,0,0,0,0-1.27c-.32-.39-.78-.2-1.17,0-3.24,1.82-6.64,3.33-9.95,5s-6.28,3.58-9.51,5.24c-2.21,1.13-4.32,2.48-6.48,3.72-.28.16-.52.31-.51.67.05,2-1,3.72-1.92,5.44-.32.59-.67,1.17-1.05,1.73a5.3,5.3,0,0,1-3.9,2.14,8.87,8.87,0,0,1-8.73-4.65,8,8,0,0,1,4.84-11.14,7.86,7.86,0,0,1,5.63.27l.34.16a4.53,4.53,0,0,0,4.4-.06c2.28-1.15,4.43-2.52,6.65-3.76s4.56-2.27,6.81-3.47c2.53-1.34,5.12-2.58,7.59-4a26.43,26.43,0,0,1,5.62-3A3.77,3.77,0,0,0,48.42,86a8.45,8.45,0,0,1,3.16-4,7.17,7.17,0,0,1,7.57.06,6.48,6.48,0,0,1,3.42,6.79,8.07,8.07,0,0,1-4.68,6.83A11.14,11.14,0,0,1,53.62,96.58Z"
     id="path233" />
  <path
     class="cls-8"
     d="M93.73,135.75a8.6,8.6,0,0,1,1.35.07,1.62,1.62,0,0,0,1.91-.89c3.31-5.09,6.55-10.21,10.09-15.15.59-.83,1.13-1.7,1.72-2.54a1.28,1.28,0,0,0,0-1.53,10.2,10.2,0,0,1-1.52-3.88,7.26,7.26,0,0,1,2.65-6.88,7,7,0,0,1,10.28,1.37c2.14,3.27,1.42,8.22-2.15,10.17a13.52,13.52,0,0,1-3,1.33,2.92,2.92,0,0,0-1.41.82,69.18,69.18,0,0,0-5.82,7.6q-3,4.42-5.74,9a12.72,12.72,0,0,0-1.46,2.78c-.09.28-.2.61.07.84s.52,0,.77-.09c5.39-2.4,10.65-5,16-7.58,3.44-1.65,6.76-3.57,10.35-4.91.57-.22.95-.8,1.46-1,1.06-.41,1.06-1.34,1.41-2.15,1.72-4,3.74-6,8.1-6.47a6,6,0,0,1,3.28.87c3.83,1.93,4.49,6.59,3.35,10-1.41,4.18-7.4,5.83-11.16,3.33a5,5,0,0,0-4.57-.31,34,34,0,0,0-4.78,2.32c-3.9,1.86-7.82,3.67-11.69,5.58-2.75,1.35-5.45,2.84-8.17,4.26a38.57,38.57,0,0,0-4.57,2.55A15.28,15.28,0,0,0,97,149a3.68,3.68,0,0,1-2.61,1.59C90,151.23,87,149.72,85,146a5.67,5.67,0,0,1,.22-5.55C87,137.1,90.09,135.88,93.73,135.75Z"
     id="path235" />
  <path
     class="cls-8"
     d="M130.52,101.55A8.11,8.11,0,0,1,123,96.79a4.86,4.86,0,0,0-3.2-2.69,77.74,77.74,0,0,1-8.65-3.16A5.53,5.53,0,0,1,109,89.3c-2.45-3.25-4.72-6.62-6.89-10.07-1.56-2.46-3.32-4.79-5.07-7.13-2.18-2.92-4.46-5.76-6.79-8.56a3.58,3.58,0,0,0-1.81-1.28A10.71,10.71,0,0,1,83,58.73a8.1,8.1,0,0,1,2.78-12.26c3.14-1.65,5.82-.72,8.46,1.09a7,7,0,0,1,2.87,5.2,8.68,8.68,0,0,1-.44,4,7.13,7.13,0,0,0,.75,5.63c1.26,2.48,3,4.67,4.41,7,1.71,2.79,3.56,5.49,5.14,8.36s3.3,5.41,5.06,8A3.24,3.24,0,0,0,113.61,87c2.41.92,5,1.37,7.42,2.07a3.14,3.14,0,0,0,3.5-1.26c2.41-3,5.78-3.91,9.17-2.31a8.7,8.7,0,0,1,5,6.6,7,7,0,0,1-1.65,6.12,8.54,8.54,0,0,1-5.38,3.2C131.25,101.52,130.82,101.53,130.52,101.55Z"
     id="path237" />
  <path
     class="cls-8"
     d="M59.16,183.26a10.57,10.57,0,0,1-4.55-.93c-1.81-.75-2.59-2.34-3.11-4.09a7.81,7.81,0,0,1-.12-4.66c1-3.18,0-5.8-1.83-8.32-1.68-2.26-3.28-4.59-4.89-6.9-2.17-3.11-4.33-6.22-6.44-9.37a34.82,34.82,0,0,0-3-4.07,1.62,1.62,0,0,0-.78-.55c-2.59-.66-5.15-1.45-7.76-2a2.2,2.2,0,0,0-2.64.94c-2.18,3.11-5.25,3.36-8.69,2.7s-5.88-4.69-6-7.69a8,8,0,0,1,3.9-7.66,6,6,0,0,1,2.53-.59c2.21-.36,4.4-.39,6.37.91a11.38,11.38,0,0,1,3.35,3.88,5,5,0,0,0,3,2.44c2.83.83,5.51,2.08,8.26,3.14a6.23,6.23,0,0,1,2.33,2c2.62,3,4.75,6.35,7.2,9.47,1.05,1.33,2,2.77,2.89,4.19a49.78,49.78,0,0,0,5.1,6.46c1.41,1.55,2.67,3.24,4.2,4.69a11.29,11.29,0,0,0,3,1.8,8.6,8.6,0,0,1,4.39,4.2,7.21,7.21,0,0,1-2,8.68A6.75,6.75,0,0,1,59.16,183.26Z"
     id="path239" />
  <path
     class="cls-9"
     d="M114,152.62a9.12,9.12,0,0,1,1.16-5.42,6.82,6.82,0,0,1,3.11-2.9,8,8,0,0,1,8,.76,7.43,7.43,0,0,1,3.06,6.37,8.85,8.85,0,0,1-.49,2.79,6.54,6.54,0,0,1-3.72,3.88c-.6.29-1.19.63-1.82.87a5.87,5.87,0,0,1-4.11.07,3.27,3.27,0,0,0-3,.41,25.21,25.21,0,0,0-3.4,2.68c-2.47,2.25-5.19,4.2-7.71,6.41s-4.89,4.34-7.3,6.54a2.72,2.72,0,0,0-.88,2,6.65,6.65,0,0,1-.77,3.32c-1,1.69-2.72,2.41-4.5,3A8.6,8.6,0,0,1,81.39,179a8.76,8.76,0,0,1-.42-5.58,2.87,2.87,0,0,0-.23-1.94,40.37,40.37,0,0,0-4.66-7.75c-2.09-2.8-4.23-5.56-6.29-8.38a2.2,2.2,0,0,0-2-1,6.92,6.92,0,0,1-3.41-.75,10.34,10.34,0,0,1-4-3.84c-.78-1.3-.37-2.74-.12-4.1a12.48,12.48,0,0,1,2.78-5.74,3.13,3.13,0,0,0,.6-2.95c-.63-2.37-1.22-4.75-1.74-7.14a3.63,3.63,0,0,0-1.7-2.16,5.22,5.22,0,0,1-2.18-5.1,4.85,4.85,0,0,1,6.67-3.75A5,5,0,0,1,67,125.94a4.67,4.67,0,0,0-.68,3.93c.53,2.13.89,4.3,1.46,6.43a4,4,0,0,0,1.68,2.38,18.36,18.36,0,0,1,4.49,4.26,6.35,6.35,0,0,1,.63,6.6,4.16,4.16,0,0,1-.6,1.12,1.52,1.52,0,0,0,0,2.05c1.41,2,2.84,3.93,4.27,5.88s3,4.09,4.54,6.14A14.4,14.4,0,0,0,85,167.09a2.26,2.26,0,0,0,2,.55,9.85,9.85,0,0,1,8.13,2.17.78.78,0,0,0,1.2,0c1.53-1.33,3.06-2.65,4.61-3.94,3.48-2.92,6.87-6,10.43-8.77.76-.6,1.49-1.25,2.23-1.88a1.16,1.16,0,0,0,.38-.94Z"
     id="path241" />
  <path
     class="cls-9"
     d="M80.28,76.86c2.29,0,4.1.28,5.58,1.55,1.87,1.61,2.18,3.8,2,6.09a8.72,8.72,0,0,1-1.67,4.28,10,10,0,0,0-2,3.67,2.28,2.28,0,0,0,0,.9c.59,2.86,1.24,5.7,1.77,8.58a8.25,8.25,0,0,0,2.55,4.35,4.75,4.75,0,0,1,1,5.34,4.82,4.82,0,0,1-7.18,2.18,4.71,4.71,0,0,1-.81-7.38,2.56,2.56,0,0,0,.73-2.3c-.52-3.39-1.33-6.71-2.05-10.06-.3-1.39-1.49-2.27-2.54-3.14-.85-.7-1.79-1.29-2.62-2-1.89-1.65-2.25-3.79-1.81-6.15a2.88,2.88,0,0,1,.1-.51c1-2.51,0-4.6-1.44-6.56-3-4.11-6-8.18-9-12.29a1.18,1.18,0,0,0-1.51-.53,7.62,7.62,0,0,1-7.53-1.37c-.79-.65-1.08-.59-1.93,0a52.33,52.33,0,0,0-5,4.31c-.57.48-1.08,1-1.64,1.52a2.39,2.39,0,0,0-.9,1.94A7.7,7.7,0,0,1,42,75.13a6.48,6.48,0,0,1-8,.61,15.19,15.19,0,0,1-2.16-1.85c-.19-.19-.3-.54-.72-.39-.2.07-.27-.17-.16-.28.39-.38.13-.75,0-1.11a7.55,7.55,0,0,1,.35-5.75,2.5,2.5,0,0,1,.56-.88c1.81-1.49,3.7-2.84,6.21-2.75a3.9,3.9,0,0,1,1.94.48,1.08,1.08,0,0,0,1.37-.14c2.56-2.15,4.94-4.51,7.4-6.77a1.34,1.34,0,0,0,.42-.69c.42-2.28,1.8-4,3.21-5.74s3.43-2.28,5.58-2.38c.6,0,1.2,0,1.8,0A5.65,5.65,0,0,1,64.43,50a11.17,11.17,0,0,1,2.31,4.32,9.85,9.85,0,0,1,.18,3.42,3.61,3.61,0,0,0,.65,2.83c2.09,2.92,4.08,5.91,6.2,8.82,1.58,2.18,3.2,4.34,4.69,6.58A1.86,1.86,0,0,0,80.28,76.86Z"
     id="path243" />
  <path
     class="cls-9"
     d="M53.62,96.58c-1.46-.66-2.09.53-2.82,1.61-3.21,4.73-6.34,9.51-9.16,14.48-.6,1.06-1.2,2.12-1.75,3.22a1,1,0,0,0,0,1.1,11.34,11.34,0,0,1,2,4.79,5.1,5.1,0,0,1-1.35,4.64A11.57,11.57,0,0,1,37.21,129a6.07,6.07,0,0,1-6.43-.7c-2.23-1.71-3.83-3.73-3.81-6.68a6.39,6.39,0,0,1,3.81-6,24.45,24.45,0,0,1,3.45-1.46c1.13-.38,1.69-1.45,2.3-2.37,1.76-2.66,3.46-5.38,5.19-8.06s3.5-5.64,5.47-8.33a3.37,3.37,0,0,0,.21-.31,1.13,1.13,0,0,0,0-1.27c-.32-.39-.78-.2-1.17,0-3.24,1.82-6.64,3.33-9.95,5s-6.28,3.58-9.51,5.24c-2.21,1.13-4.32,2.48-6.48,3.72-.28.16-.52.31-.51.67.05,2-1,3.72-1.92,5.44-.32.59-.67,1.17-1.05,1.73a5.3,5.3,0,0,1-3.9,2.14,8.87,8.87,0,0,1-8.73-4.65,8,8,0,0,1,4.84-11.14,7.86,7.86,0,0,1,5.63.27l.34.16a4.53,4.53,0,0,0,4.4-.06c2.28-1.15,4.43-2.52,6.65-3.76s4.56-2.27,6.81-3.47c2.53-1.34,5.12-2.58,7.59-4a26.43,26.43,0,0,1,5.62-3A3.77,3.77,0,0,0,48.42,86a8.45,8.45,0,0,1,3.16-4,7.17,7.17,0,0,1,7.57.06,6.48,6.48,0,0,1,3.42,6.79,8.07,8.07,0,0,1-4.68,6.83A11.14,11.14,0,0,1,53.62,96.58Z"
     id="path245" />
  <path
     class="cls-9"
     d="M93.73,135.75a8.6,8.6,0,0,1,1.35.07,1.62,1.62,0,0,0,1.91-.89c3.31-5.09,6.55-10.21,10.09-15.15.59-.83,1.13-1.7,1.72-2.54a1.28,1.28,0,0,0,0-1.53,10.2,10.2,0,0,1-1.52-3.88,7.26,7.26,0,0,1,2.65-6.88,7,7,0,0,1,10.28,1.37c2.14,3.27,1.42,8.22-2.15,10.17a13.52,13.52,0,0,1-3,1.33,2.92,2.92,0,0,0-1.41.82,69.18,69.18,0,0,0-5.82,7.6q-3,4.42-5.74,9a12.72,12.72,0,0,0-1.46,2.78c-.09.28-.2.61.07.84s.52,0,.77-.09c5.39-2.4,10.65-5,16-7.58,3.44-1.65,6.76-3.57,10.35-4.91.57-.22.95-.8,1.46-1,1.06-.41,1.06-1.34,1.41-2.15,1.72-4,3.74-6,8.1-6.47a6,6,0,0,1,3.28.87c3.83,1.93,4.49,6.59,3.35,10-1.41,4.18-7.4,5.83-11.16,3.33a5,5,0,0,0-4.57-.31,34,34,0,0,0-4.78,2.32c-3.9,1.86-7.82,3.67-11.69,5.58-2.75,1.35-5.45,2.84-8.17,4.26a38.57,38.57,0,0,0-4.57,2.55A15.28,15.28,0,0,0,97,149a3.68,3.68,0,0,1-2.61,1.59C90,151.23,87,149.72,85,146a5.67,5.67,0,0,1,.22-5.55C87,137.1,90.09,135.88,93.73,135.75Z"
     id="path247" />
  <path
     class="cls-9"
     d="M130.52,101.55A8.11,8.11,0,0,1,123,96.79a4.86,4.86,0,0,0-3.2-2.69,77.74,77.74,0,0,1-8.65-3.16A5.53,5.53,0,0,1,109,89.3c-2.45-3.25-4.72-6.62-6.89-10.07-1.56-2.46-3.32-4.79-5.07-7.13-2.18-2.92-4.46-5.76-6.79-8.56a3.58,3.58,0,0,0-1.81-1.28A10.71,10.71,0,0,1,83,58.73a8.1,8.1,0,0,1,2.78-12.26c3.14-1.65,5.82-.72,8.46,1.09a7,7,0,0,1,2.87,5.2,8.68,8.68,0,0,1-.44,4,7.13,7.13,0,0,0,.75,5.63c1.26,2.48,3,4.67,4.41,7,1.71,2.79,3.56,5.49,5.14,8.36s3.3,5.41,5.06,8A3.24,3.24,0,0,0,113.61,87c2.41.92,5,1.37,7.42,2.07a3.14,3.14,0,0,0,3.5-1.26c2.41-3,5.78-3.91,9.17-2.31a8.7,8.7,0,0,1,5,6.6,7,7,0,0,1-1.65,6.12,8.54,8.54,0,0,1-5.38,3.2C131.25,101.52,130.82,101.53,130.52,101.55Z"
     id="path249" />
  <path
     class="cls-9"
     d="M59.16,183.26a10.57,10.57,0,0,1-4.55-.93c-1.81-.75-2.59-2.34-3.11-4.09a7.81,7.81,0,0,1-.12-4.66c1-3.18,0-5.8-1.83-8.32-1.68-2.26-3.28-4.59-4.89-6.9-2.17-3.11-4.33-6.22-6.44-9.37a34.82,34.82,0,0,0-3-4.07,1.62,1.62,0,0,0-.78-.55c-2.59-.66-5.15-1.45-7.76-2a2.2,2.2,0,0,0-2.64.94c-2.18,3.11-5.25,3.36-8.69,2.7s-5.88-4.69-6-7.69a8,8,0,0,1,3.9-7.66,6,6,0,0,1,2.53-.59c2.21-.36,4.4-.39,6.37.91a11.38,11.38,0,0,1,3.35,3.88,5,5,0,0,0,3,2.44c2.83.83,5.51,2.08,8.26,3.14a6.23,6.23,0,0,1,2.33,2c2.62,3,4.75,6.35,7.2,9.47,1.05,1.33,2,2.77,2.89,4.19a49.78,49.78,0,0,0,5.1,6.46c1.41,1.55,2.67,3.24,4.2,4.69a11.29,11.29,0,0,0,3,1.8,8.6,8.6,0,0,1,4.39,4.2,7.21,7.21,0,0,1-2,8.68A6.75,6.75,0,0,1,59.16,183.26Z"
     id="path251" />
</svg>
